<svg width="51" height="51" viewBox="0 0 51 51" fill="none" xmlns="http://www.w3.org/2000/svg">
<path d="M19.2826 36.4003L36.6877 25.2114L19.2826 14.0224V36.4003ZM25.4987 50.0757C22.0591 50.0757 18.8268 49.423 15.8016 48.1176C12.7765 46.8122 10.145 45.0407 7.90721 42.8029C5.66942 40.5651 3.89784 37.9336 2.59246 34.9084C1.28709 31.8833 0.634399 28.6509 0.634399 25.2114C0.634399 21.7718 1.28709 18.5394 2.59246 15.5143C3.89784 12.4891 5.66942 9.85765 7.90721 7.61986C10.145 5.38207 12.7765 3.61049 15.8016 2.30511C18.8268 0.999734 22.0591 0.347046 25.4987 0.347046C28.9383 0.347046 32.1706 0.999734 35.1958 2.30511C38.221 3.61049 40.8524 5.38207 43.0902 7.61986C45.328 9.85765 47.0996 12.4891 48.405 15.5143C49.7103 18.5394 50.363 21.7718 50.363 25.2114C50.363 28.6509 49.7103 31.8833 48.405 34.9084C47.0996 37.9336 45.328 40.5651 43.0902 42.8029C40.8524 45.0407 38.221 46.8122 35.1958 48.1176C32.1706 49.423 28.9383 50.0757 25.4987 50.0757Z" fill="white"/>
<path d="M19.1337 36.7485V13.6744L37.036 25.2115L19.1337 36.7485Z" fill="#FF3F4E"/>
</svg>
